<svg xmlns="http://www.w3.org/2000/svg" viewBox="0 0 390.271 390.271"><path fill="#fff" d="M241.713 368.582h94.319c5.947 0 10.861-4.848 10.861-10.861V188.089h-105.18v180.493zM170.149 188.089h49.325v180.493h-49.325zM148.493 188.089H43.895v169.632c0 5.947 4.848 10.861 10.861 10.861h94.319V188.089h-.582z"/><g fill="#ffc10d"><path d="M357.689 107.345H241.713v59.087h115.976c5.948 0 10.861-4.848 10.861-10.861v-37.366c-.001-6.011-4.914-10.86-10.861-10.86zM170.149 107.345h49.325v59.087h-49.325z"/></g><path fill="#194f82" d="M357.689 85.689h-77.511c6.529-8.663 10.279-19.523 10.279-31.418v-1.099c0-29.285-23.855-53.139-53.139-53.139-17.325 0-32.517 8.145-42.279 21.139C185.277 8.178 170.085.032 152.76.032c-29.285 0-53.139 23.855-53.139 53.139v1.099c0 11.895 3.814 22.756 10.279 31.418H32.517C14.61 85.689 0 100.299 0 118.206v37.366c0 14.093 9.244 26.57 22.238 30.901v171.249c0 17.907 14.61 32.517 32.517 32.517h280.76c17.907 0 32.517-14.61 32.517-32.517V186.473c12.994-4.331 22.238-16.291 22.238-30.901v-37.366c-.064-17.907-14.674-32.517-32.581-32.517zm10.86 69.883c0 5.947-4.849 10.861-10.861 10.861H241.713v-59.087h115.976c5.948 0 10.861 4.848 10.861 10.861v37.365zm-22.238 202.149c0 5.947-4.848 10.861-10.861 10.861h-93.737V188.089h105.115v169.632h-.517zm-302.416 0V188.089H149.01v180.493H54.756c-6.013 0-10.861-4.913-10.861-10.861zm126.254 10.861V188.089h49.325v180.493h-49.325zM21.657 155.572v-37.366c0-5.947 4.848-10.861 10.861-10.861h115.976v59.087H32.517c-5.947 0-10.86-4.913-10.86-10.86zm198.4-48.227v59.087h-49.325v-59.087h49.325zm-14.093-54.173c0-17.325 14.093-31.418 31.418-31.418S268.8 35.847 268.8 53.172v1.099c0 17.325-14.093 31.418-31.418 31.418h-31.418V53.172zm-84.558 0c0-17.325 14.093-31.418 31.418-31.418s31.418 14.093 31.418 31.418v32.517h-31.418c-17.325 0-31.418-14.093-31.418-31.418v-1.099z"/><path fill="#ffc10d" d="M148.493 107.345H32.517c-5.947 0-10.861 4.848-10.861 10.861v37.366c0 5.947 4.848 10.861 10.861 10.861h115.976v-59.088z"/><g fill="#56ace0"><path d="M65.034 209.745v33.616h39.046c5.947 0 10.861 4.848 10.861 10.861 0 5.947-4.848 10.861-10.861 10.861H65.034v21.657H82.36c5.947 0 10.861 4.848 10.861 10.861 0 5.947-4.848 10.861-10.861 10.861H65.034v38.465h83.459v-137.18H65.034zM241.713 209.745h83.459V346.86h-83.459z"/></g><path fill="#fff" d="M170.149 188.089h49.325v180.493h-49.325zM170.149 107.345h49.325v59.087h-49.325z"/></svg>